FILE "J.B. Harold - Blue Chicago Blues (1996)(NEC Home Electronics)(JP)(Disc 2 of 2)[FXNHE512].img" BINARY
  TRACK 01 AUDIO
    INDEX 01 00:00:00
  TRACK 02 MODE1/2352
    PREGAP 00:03:00
    INDEX 01 00:55:45
  TRACK 03 AUDIO
    PREGAP 00:02:00
    INDEX 01 68:33:40
  TRACK 04 AUDIO
    INDEX 01 71:30:10
